<svg xmlns="http://www.w3.org/2000/svg" width="103" height="24" viewBox="0 0 103 24" fill="none"><g id="g8"><g id="g68"><g id="Clip path group"><g id="g70"><g id="g80"><path id="path82" d="M18.4331 23.6667V9.89994H20.9999H23.4666V18.8667C23.4666 22.4333 25.5998 23.8666 28.5331 23.8666C29.6331 23.8666 30.8997 23.6667 31.5665 23.0667V19.6333C30.9332 19.8332 30.3331 19.9001 29.9331 19.9001C28.4665 19.9001 27.9665 19.0333 27.9665 18.1333V9.89994H31.5332V6.33329H27.9665V3.71958V1.90001V0H23.4666V1.90001V3.71958V6.33329H20.9999H18.4331V0H13.9666V8.66667H13.8665C13.4332 7.70004 11.4332 6.00003 8.3332 6.00003C4.29992 6.00003 0 8.99994 0 15.0001C0 21 4.29992 24 8.3332 24C11.4332 24 13.4332 22.3 13.8665 21.3335H13.9666V23.6667H18.4331ZM4.39992 15.0001C4.39992 11.7667 6.73319 10.0001 9.2332 10.0001C11.7332 10.0001 14.0666 11.7334 14.0666 15.0001C14.0666 18.2667 11.7332 20 9.2332 20C6.73319 20 4.39992 18.2333 4.39992 15.0001Z" fill="#FF6600"></path></g><g id="g84"><path id="path86" d="M34.7656 23.6667H47.4989V22.1667H36.3323V0H34.7656V23.6667ZM58.3657 24C61.6656 24 64.4655 22.2001 65.5989 19.6666H65.699V23.6667H67.2323V6.33329H65.699V10.3334H65.5989C64.4655 7.80014 61.6656 6.00003 58.3657 6.00003C53.9656 6.00003 49.7323 9.13341 49.7323 15.0001C49.7323 20.8667 53.9656 24 58.3657 24ZM51.299 15.0001C51.299 9.89994 54.9322 7.4333 58.499 7.4333C62.0656 7.4333 65.7323 9.93331 65.7323 15.0001C65.7323 20.0667 62.0656 22.5667 58.499 22.5667C54.9322 22.5667 51.299 20.1001 51.299 15.0001ZM80.4322 24C84.8324 24 89.0657 20.8667 89.0657 15.0001C89.0657 9.13341 84.8324 6.00003 80.4322 6.00003C77.1323 6.00003 74.3323 7.80014 73.1991 10.3334H73.1323V0H71.5989V6.33329H71.5657V23.6667H73.099V19.6666H73.1991C74.3323 22.2001 77.1323 24 80.4322 24ZM73.0657 15.0001C73.0657 9.93331 76.7323 7.4333 80.299 7.4333C83.8656 7.4333 87.499 9.89994 87.499 15.0001C87.499 20.1001 83.8656 22.5667 80.299 22.5667C76.7323 22.5667 73.0657 20.0667 73.0657 15.0001ZM96.9322 24C99.6656 24 102.532 22.5667 102.532 19.2333C102.532 16.5 100.732 15.3333 97.5656 14.0001L96.5656 13.6001C94.3989 12.6667 93.5322 11.6333 93.5322 10.2C93.5322 8.26677 95.1323 7.40003 96.8988 7.40003C98.899 7.40003 99.999 8.4334 100.599 9.93331L101.866 9.46667C101.232 7.36677 99.3323 6.00003 96.8657 6.00003C94.0656 6.00003 91.9989 7.7333 91.9989 10.2C91.9989 12.0667 93.1656 13.7002 96.0322 14.9L97.199 15.4C99.6656 16.4333 100.999 17.2667 100.999 19.2333C100.999 21.6001 98.9655 22.6 96.9655 22.6C94.8657 22.6 93.0989 21.4334 92.4989 19.0666L91.1323 19.4335C91.6656 22.2001 93.8323 24 96.9322 24Z" fill="white"></path></g><g id="g88"><path id="path90" d="M18.4331 23.6667V9.89994H20.9999H23.4666V18.8667C23.4666 22.4333 25.5998 23.8666 28.5331 23.8666C29.6331 23.8666 30.8997 23.6667 31.5665 23.0667V19.6333C30.9332 19.8332 30.3331 19.9001 29.9331 19.9001C28.4665 19.9001 27.9665 19.0333 27.9665 18.1333V9.89994H31.5332V6.33329H27.9665V3.71958V1.90001V0H23.4666V1.90001V3.71958V6.33329H20.9999H18.4331V0H13.9666V8.66667H13.8665C13.4332 7.70004 11.4332 6.00003 8.3332 6.00003C4.29992 6.00003 0 8.99994 0 15.0001C0 21 4.29992 24 8.3332 24C11.4332 24 13.4332 22.3 13.8665 21.3335H13.9666V23.6667H18.4331ZM4.39992 15.0001C4.39992 11.7667 6.73319 10.0001 9.2332 10.0001C11.7332 10.0001 14.0666 11.7334 14.0666 15.0001C14.0666 18.2667 11.7332 20 9.2332 20C6.73319 20 4.39992 18.2333 4.39992 15.0001Z" fill="#FF6600"></path></g></g></g></g></g></svg>